<?xml version="1.0" encoding="UTF-8" standalone="no"?>
<svg
   xmlns:dc="http://purl.org/dc/elements/1.1/"
   xmlns:cc="http://creativecommons.org/ns#"
   xmlns:rdf="http://www.w3.org/1999/02/22-rdf-syntax-ns#"
   xmlns:svg="http://www.w3.org/2000/svg"
   xmlns="http://www.w3.org/2000/svg"
   xmlns:sodipodi="http://sodipodi.sourceforge.net/DTD/sodipodi-0.dtd"
   xmlns:inkscape="http://www.inkscape.org/namespaces/inkscape"
   version="1.0"
   width="600.000000pt"
   height="647.000000pt"
   viewBox="0 0 600.000000 647.000000"
   preserveAspectRatio="xMidYMid meet"
   id="svg88"
   sodipodi:docname="dedtec.svg"
   inkscape:version="0.92.3 (2405546, 2018-03-11)">
  <metadata
     id="metadata94">
    <rdf:RDF>
      <cc:Work
         rdf:about="">
        <dc:format>image/svg+xml</dc:format>
        <dc:type
           rdf:resource="http://purl.org/dc/dcmitype/StillImage" />
        <dc:title></dc:title>
      </cc:Work>
    </rdf:RDF>
  </metadata>
  <defs
     id="defs92" />
  <sodipodi:namedview
     pagecolor="#ffffff"
     bordercolor="#666666"
     borderopacity="1"
     objecttolerance="10"
     gridtolerance="10"
     guidetolerance="10"
     inkscape:pageopacity="0"
     inkscape:pageshadow="2"
     inkscape:window-width="1366"
     inkscape:window-height="720"
     id="namedview90"
     showgrid="false"
     inkscape:zoom="0.27357032"
     inkscape:cx="-100.89253"
     inkscape:cy="469.70677"
     inkscape:window-x="0"
     inkscape:window-y="27"
     inkscape:window-maximized="1"
     inkscape:current-layer="g86" />
  <g
     transform="translate(0.000000,647.000000) scale(0.100000,-0.100000)"
     fill="#000000"
     stroke="none"
     id="g86">
    <g
       id="g137"
       transform="translate(246.73729,-219.32203)">
      <path
         id="path2"
         d="m 4647,6274 c -4,-4 -7,-17 -7,-28 1,-19 1,-20 11,-3 11,19 8,43 -4,31 z"
         inkscape:connector-curvature="0" />
      <path
         id="path4"
         d="m 4518,6230 c -11,-38 -10,-56 3,-43 6,6 9,23 7,39 l -3,29 z"
         inkscape:connector-curvature="0" />
      <path
         id="path6"
         d="m 4575,6174 c -36,-40 -44,-52 -51,-78 -3,-14 -10,-26 -15,-26 -5,0 -7,-11 -3,-25 5,-19 2,-25 -10,-25 -15,0 -21,-12 -17,-34 4,-19 -23,-24 -36,-8 -11,15 -12,14 -13,-10 0,-15 -4,-30 -10,-33 -13,-8 -80,-123 -80,-138 0,-8 3,-7 9,2 5,7 14,10 21,6 9,-6 9,-9 -1,-15 -10,-7 -10,-12 0,-23 8,-10 9,-17 1,-22 -5,-3 -10,-1 -10,4 0,6 -7,11 -15,11 -8,0 -15,-9 -15,-20 0,-11 -4,-20 -9,-20 -6,0 -8,-9 -6,-20 2,-11 -2,-23 -10,-27 -22,-13 -45,-81 -36,-106 9,-24 -10,-64 -26,-54 -5,3 -17,-18 -27,-46 -10,-29 -24,-65 -31,-82 -32,-76 -35,-87 -29,-97 4,-6 2,-13 -2,-17 -14,-9 -46,-119 -39,-131 3,-6 1,-10 -5,-10 -7,0 -9,-7 -6,-16 3,-8 2,-13 -2,-10 -4,2 -16,-19 -26,-47 -23,-67 -83,-223 -102,-265 -8,-18 -12,-37 -9,-42 3,-6 1,-10 -4,-10 -6,0 -11,-10 -11,-23 0,-13 -5,-28 -12,-35 -7,-7 -8,-12 -4,-12 5,0 3,-6 -3,-14 -9,-10 -8,-15 4,-20 8,-3 15,-10 15,-15 0,-6 -7,-8 -15,-5 -14,6 -17,2 -19,-28 -1,-7 -5,-16 -9,-19 -4,-3 -9,-17 -11,-30 -2,-13 -7,-32 -10,-41 -4,-9 -9,-22 -10,-30 -2,-7 -6,-21 -10,-30 -4,-9 -5,-21 -2,-26 3,-6 0,-15 -8,-21 -8,-7 -26,-51 -41,-99 -15,-48 -33,-101 -41,-119 -8,-17 -14,-36 -14,-42 0,-6 -4,-19 -9,-29 -5,-9 -15,-36 -22,-59 -14,-50 -22,-53 -46,-15 -9,15 -24,36 -34,47 -9,11 -27,38 -39,59 -19,35 -20,40 -6,48 20,11 21,28 1,28 -8,0 -15,-4 -15,-10 0,-21 -20,-9 -26,15 -3,14 -10,25 -14,25 -5,0 -23,26 -41,58 -18,31 -41,71 -50,87 -10,17 -27,48 -38,70 -38,76 -101,187 -154,272 -28,47 -56,92 -62,101 -5,10 -35,58 -66,107 -65,104 -104,174 -170,303 -27,51 -55,100 -64,108 -8,9 -15,21 -15,28 0,7 -12,25 -27,40 -20,21 -27,38 -29,74 -3,67 -30,129 -59,136 -39,10 -99,-17 -162,-72 -66,-58 -128,-128 -128,-145 0,-7 -8,-18 -18,-25 -9,-7 -15,-17 -12,-22 3,-4 1,-10 -3,-12 -15,-5 -137,-222 -134,-237 2,-7 -1,-10 -6,-7 -5,3 -20,-14 -33,-37 -13,-23 -28,-49 -34,-59 -5,-9 -46,-85 -90,-168 -44,-84 -96,-171 -115,-194 -20,-22 -46,-63 -58,-91 -36,-86 -47,-105 -57,-105 -5,0 -18,-19 -29,-41 -15,-32 -21,-38 -32,-28 -18,15 -19,13 -32,-34 -8,-28 -8,-44 0,-57 9,-14 7,-25 -9,-51 -11,-19 -42,-74 -69,-124 -93,-175 -101,-189 -112,-193 -14,-4 -75,91 -139,215 -26,51 -51,89 -56,86 -6,-4 -7,-1 -2,7 5,7 -7,45 -30,94 -64,137 -85,184 -85,191 0,3 -15,38 -34,78 -18,40 -39,90 -46,112 -7,22 -16,44 -21,49 -5,6 -9,18 -9,28 0,10 -6,29 -14,41 -8,12 -27,58 -42,102 -15,44 -31,86 -37,92 -5,7 -7,20 -3,28 3,8 2,15 -2,15 -4,0 -16,21 -26,48 -19,47 -53,123 -116,257 -35,75 -56,126 -100,245 -16,41 -36,92 -44,113 -9,20 -13,37 -9,37 4,0 2,5 -5,12 -7,7 -12,24 -12,39 0,15 -6,29 -14,32 -7,3 -17,18 -20,34 -12,47 -88,137 -148,177 -22,14 -26,13 -70,-17 -26,-18 -48,-40 -48,-49 0,-10 -4,-18 -9,-18 -12,0 -20,-49 -9,-52 6,-2 10,-17 10,-33 0,-17 2,-45 5,-63 4,-29 6,-32 20,-20 15,12 16,10 9,-14 -5,-21 -3,-28 9,-28 21,0 19,-20 -2,-21 -14,0 -13,-2 5,-9 23,-10 30,-34 12,-45 -6,-3 -11,4 -11,17 -1,20 -2,20 -6,4 -3,-12 2,-25 13,-33 12,-9 15,-16 8,-21 -5,-4 -10,-16 -11,-27 0,-11 -4,-39 -8,-62 -5,-31 -4,-43 4,-43 7,0 9,-5 6,-10 -4,-6 0,-24 9,-41 12,-25 13,-31 2,-35 -22,-8 -9,-115 16,-134 10,-9 16,-19 12,-23 -4,-4 -16,1 -27,10 -19,17 -19,17 -11,-7 5,-14 8,-43 6,-65 -1,-29 1,-36 8,-25 8,13 10,13 10,-2 0,-9 -4,-19 -9,-22 -5,-3 -5,-21 -1,-41 4,-20 4,-35 -1,-35 -5,0 -9,-5 -9,-11 0,-5 4,-8 8,-5 4,2 8,-11 8,-30 0,-22 7,-39 20,-48 18,-14 18,-15 -5,-9 -23,6 -24,5 -16,-33 5,-21 9,-49 10,-62 1,-12 10,-29 21,-37 13,-10 15,-14 5,-15 -11,0 -10,-5 4,-20 10,-11 13,-20 8,-20 -16,0 -14,-72 2,-90 8,-9 13,-39 13,-75 -1,-102 1,-117 13,-109 7,4 7,-1 -1,-16 -12,-23 -7,-31 25,-43 6,-3 6,-8 2,-13 -4,-5 -12,-3 -16,5 -16,25 -22,-19 -6,-48 7,-15 12,-37 9,-48 -3,-12 -1,-24 5,-27 6,-4 11,0 11,9 0,9 5,13 10,10 7,-4 6,-14 -2,-28 -13,-26 -22,-92 -22,-167 1,-58 12,-212 18,-245 2,-11 7,-56 12,-100 4,-44 8,-87 9,-95 1,-8 2,-37 3,-65 2,-35 5,-46 12,-35 5,8 12,11 16,7 4,-3 2,-12 -3,-19 -6,-7 -9,-38 -8,-68 2,-30 6,-122 9,-205 7,-231 22,-479 31,-530 3,-16 7,-141 10,-277 6,-278 13,-314 72,-385 33,-40 39,-57 48,-121 7,-52 15,-78 27,-86 32,-20 50,14 58,106 8,96 13,108 77,175 27,28 57,69 68,91 24,51 35,53 35,8 0,-33 21,-66 40,-66 25,0 39,50 45,165 7,134 -1,113 170,445 36,69 65,131 65,138 0,6 5,12 10,12 6,0 10,9 10,20 0,11 4,20 9,20 9,0 101,181 101,199 0,5 7,11 15,15 16,6 33,-16 108,-138 55,-90 97,-173 90,-180 -4,-3 -1,-6 5,-6 6,0 14,-10 17,-21 7,-20 48,-112 113,-249 14,-30 25,-63 24,-72 0,-9 6,-22 14,-29 8,-6 14,-16 14,-21 0,-6 6,-24 14,-41 52,-116 81,-188 133,-337 9,-25 20,-50 25,-57 5,-7 7,-17 3,-23 -3,-5 -2,-10 2,-10 5,0 17,-24 27,-52 10,-29 34,-87 53,-128 19,-41 50,-111 70,-155 19,-44 39,-88 44,-98 5,-9 19,-43 30,-75 12,-31 37,-99 55,-150 19,-51 32,-97 29,-101 -2,-5 2,-14 10,-21 8,-7 15,-18 15,-24 0,-6 9,-28 19,-48 11,-19 17,-39 14,-42 -4,-3 1,-6 9,-6 9,0 21,-7 28,-15 12,-14 52,-35 93,-49 9,-3 17,-12 17,-21 0,-8 4,-15 10,-15 5,0 9,-3 8,-7 -4,-15 32,-71 62,-97 64,-53 128,-28 232,90 63,71 128,180 128,213 0,7 7,27 16,44 31,58 34,67 34,82 0,9 9,32 19,53 10,20 19,42 20,47 1,12 44,129 72,195 14,35 63,186 75,233 1,4 2,8 4,10 1,1 3,9 5,17 5,23 65,190 82,230 32,75 40,97 61,165 44,142 153,473 191,580 21,61 41,117 43,125 37,120 84,250 89,250 3,0 23,-26 44,-57 21,-32 52,-76 70,-98 17,-22 43,-61 57,-86 14,-25 31,-54 37,-65 37,-65 54,-133 58,-239 2,-60 6,-120 9,-133 10,-48 22,-8 29,93 4,58 10,105 14,105 7,-1 129,-196 159,-255 11,-22 36,-66 55,-97 28,-47 35,-71 41,-135 10,-114 36,-255 52,-280 17,-28 45,-29 67,-5 13,14 17,39 17,106 v 86 l 25,-16 c 18,-12 35,-14 65,-9 47,8 66,31 76,93 4,23 10,42 15,42 5,0 9,13 9,29 0,28 17,55 40,63 14,4 21,68 8,68 -5,0 -7,-7 -4,-16 3,-9 0,-24 -7,-35 -12,-16 -14,33 -14,309 -1,180 -4,392 -7,472 -3,80 -8,267 -11,415 -3,149 -8,286 -10,305 -6,42 -11,944 -5,1018 2,28 6,52 9,52 3,0 5,143 4,317 -1,175 3,363 9,418 11,101 12,147 7,219 -1,24 2,41 9,44 13,4 17,32 4,32 -4,0 -13,-5 -20,-12 -9,-9 -12,-7 -12,10 0,12 -22,43 -52,75 -59,59 -90,67 -123,31 z m -5,-64 c 0,-5 -5,-10 -11,-10 -5,0 -7,5 -4,10 3,6 8,10 11,10 2,0 4,-4 4,-10 z m 43,-66 c 3,-3 3,-13 0,-21 -5,-12 -7,-12 -14,-1 -15,23 -4,40 14,22 z m -23,-30 c 0,-8 -4,-12 -10,-9 -5,3 -10,10 -10,16 0,5 5,9 10,9 6,0 10,-7 10,-16 z m 55,-283 c 3,-5 1,-12 -5,-16 -5,-3 -10,1 -10,9 0,18 6,21 15,7 z m -255,-41 c 0,-5 -4,-10 -10,-10 -5,0 -10,5 -10,10 0,6 5,10 10,10 6,0 10,-4 10,-10 z M 605,5611 c 3,-5 1,-12 -5,-16 -5,-3 -10,1 -10,9 0,18 6,21 15,7 z m 1965,-151 c 0,-5 -2,-10 -4,-10 -3,0 -8,5 -11,10 -3,6 -1,10 4,10 6,0 11,-4 11,-10 z m 30,-2 c 0,-19 -18,-43 -25,-36 -4,3 -2,16 5,27 12,24 20,27 20,9 z m 1670,-28 c 0,-5 -2,-10 -4,-10 -3,0 -8,5 -11,10 -3,6 -1,10 4,10 6,0 11,-4 11,-10 z m -1650,-45 c 7,-9 11,-17 8,-20 -2,-2 -12,4 -21,15 -9,11 -13,20 -8,20 5,0 14,-7 21,-15 z m 1590,-49 c 0,-11 -19,-15 -25,-6 -3,5 1,10 9,10 9,0 16,-2 16,-4 z m -20,-47 c 0,-5 -4,-9 -10,-9 -5,0 -10,7 -10,16 0,8 5,12 10,9 6,-3 10,-10 10,-16 z M 595,5220 c -3,-5 -11,-10 -16,-10 -6,0 -7,5 -4,10 3,6 11,10 16,10 6,0 7,-4 4,-10 z m 1865,6 c 0,-3 -4,-8 -10,-11 -5,-3 -10,-1 -10,4 0,6 5,11 10,11 6,0 10,-2 10,-4 z m 215,-16 c 3,-5 1,-10 -4,-10 -6,0 -11,5 -11,10 0,6 2,10 4,10 3,0 8,-4 11,-10 z m 1475,-30 c 0,-5 -4,-10 -10,-10 -5,0 -10,5 -10,10 0,6 5,10 10,10 6,0 10,-4 10,-10 z M 610,5170 c 0,-5 -5,-10 -11,-10 -5,0 -7,5 -4,10 3,6 8,10 11,10 2,0 4,-4 4,-10 z m 2139,-146 c 39,-64 71,-123 71,-130 0,-8 4,-14 9,-14 5,0 26,-28 47,-62 68,-115 226,-348 235,-348 5,0 8,-3 7,-7 -4,-16 23,-53 38,-53 10,0 14,-6 10,-15 -3,-8 6,-37 20,-63 58,-104 149,-249 178,-282 43,-48 99,-130 89,-130 -4,0 -2,-4 5,-8 7,-5 33,-40 57,-78 44,-66 45,-71 39,-124 -4,-30 -10,-63 -15,-72 -5,-9 -9,-35 -9,-58 0,-23 -5,-50 -10,-61 -8,-14 -7,-19 2,-19 9,0 10,-3 2,-8 -6,-4 -17,-32 -23,-62 -13,-57 -59,-208 -70,-225 -3,-5 -6,-14 -8,-20 -7,-32 -49,-131 -58,-137 -5,-4 -7,-8 -3,-8 8,0 -69,-190 -83,-204 -5,-6 -9,-16 -9,-24 0,-8 -6,-28 -14,-45 -65,-146 -81,-177 -89,-177 -4,0 -6,-4 -3,-9 5,-8 -93,-214 -113,-237 -5,-7 -7,-14 -5,-17 3,-3 -6,-22 -19,-44 -14,-21 -31,-57 -38,-80 -8,-27 -18,-43 -28,-43 -12,0 -13,-2 -4,-8 16,-10 -5,-72 -23,-72 -7,0 -14,-7 -18,-15 -3,-8 0,-15 7,-15 8,0 7,-4 -3,-9 -8,-6 -17,-8 -20,-6 -3,2 -6,-21 -6,-52 -1,-34 -8,-61 -18,-72 -9,-10 -18,-27 -21,-37 -8,-40 -37,-85 -51,-80 -8,3 -14,1 -14,-3 0,-5 4,-11 10,-13 15,-5 -1,-48 -18,-48 -8,0 -12,-3 -9,-7 4,-3 -1,-12 -11,-20 -9,-8 -11,-12 -4,-8 16,8 15,-5 -3,-29 -14,-19 -15,-19 -21,0 -4,10 -19,46 -34,79 -15,33 -46,103 -68,155 -22,52 -67,147 -99,210 -61,120 -130,266 -181,385 -17,39 -76,160 -131,269 -69,136 -99,206 -95,219 4,12 2,17 -4,13 -12,-7 -31,21 -59,89 -21,49 -214,452 -234,489 -22,40 -38,120 -27,140 10,19 11,19 24,1 12,-17 15,-17 38,-1 14,9 28,29 32,44 3,15 10,38 15,51 14,34 5,36 -26,6 -14,-15 -28,-25 -31,-22 -7,6 72,141 96,162 11,10 20,24 20,30 0,7 7,15 15,18 8,4 21,21 30,39 9,18 22,44 30,58 8,14 15,34 15,46 0,11 8,29 18,40 9,11 22,29 29,40 6,10 16,18 23,16 7,-2 9,5 5,18 -5,14 9,45 46,105 28,46 58,90 65,96 8,6 14,16 14,21 0,5 11,24 25,42 14,18 25,40 25,49 0,10 7,17 15,17 8,0 15,4 15,10 0,16 75,129 86,130 6,0 16,12 22,26 9,19 9,23 1,18 -13,-8 29,74 49,94 6,7 12,18 12,23 0,5 17,36 38,69 20,32 54,86 75,120 21,33 42,60 47,60 4,0 40,-52 79,-116 z m -2109,96 c 0,-5 -4,-10 -10,-10 -5,0 -10,5 -10,10 0,6 5,10 10,10 6,0 10,-4 10,-10 z m 3825,-285 c -1,-115 1,-243 6,-283 11,-104 13,-502 3,-532 -3,-8 -7,-66 -10,-127 -2,-62 -4,-116 -5,-120 -1,-5 0,-12 1,-18 7,-24 4,-875 -2,-875 -5,0 -8,5 -8,11 0,6 -9,23 -21,37 -77,101 -175,247 -312,466 -27,44 -53,84 -58,90 -34,43 -59,76 -80,108 l -25,37 17,113 c 9,62 24,145 33,183 22,90 98,309 108,313 5,2 6,8 3,13 -3,4 1,22 10,39 15,28 15,30 -4,30 -11,0 -23,5 -27,12 -5,8 1,9 22,5 28,-5 30,-3 42,36 7,23 19,56 27,72 7,17 32,80 55,140 23,61 58,144 77,185 19,41 43,93 53,115 10,22 21,50 25,63 4,12 10,20 15,17 4,-3 7,1 6,8 0,6 8,33 19,59 15,36 22,43 26,30 4,-9 6,-111 4,-227 z m -3613,38 c 27,-60 66,-146 85,-193 20,-47 64,-140 100,-207 35,-68 59,-123 54,-123 -11,0 -46,-99 -37,-107 3,-4 6,-1 6,5 0,7 8,12 17,12 13,0 14,3 6,11 -9,9 -8,19 4,42 13,27 16,28 25,13 5,-9 7,-24 4,-32 -3,-8 0,-14 7,-14 7,0 34,-46 61,-103 26,-56 82,-172 123,-257 103,-211 141,-294 145,-317 3,-21 -117,-203 -135,-203 -6,0 -8,-3 -5,-6 4,-3 -30,-62 -74,-132 -44,-69 -87,-140 -95,-157 -29,-55 -116,-185 -125,-185 -5,0 -7,3 -5,8 2,4 1,36 -4,72 -14,108 -38,340 -45,430 -12,167 -13,185 -17,220 -2,19 -5,45 -6,58 0,15 -5,21 -13,16 -8,-5 -9,-2 -4,11 4,11 2,22 -6,27 -10,6 -10,10 -1,16 12,8 11,43 -7,192 -6,52 -13,118 -15,145 -3,28 -10,102 -16,165 -13,137 -14,156 -35,375 -14,154 -31,261 -49,308 -4,9 -4,17 0,17 3,0 29,-48 57,-107 z m 3833,47 c 3,-5 -1,-10 -9,-10 -9,0 -16,5 -16,10 0,6 4,10 9,10 6,0 13,-4 16,-10 z m -605,-115 c 0,-8 -4,-15 -10,-15 -5,0 -7,7 -4,15 4,8 8,15 10,15 2,0 4,-7 4,-15 z m -70,-205 c 0,-5 -2,-10 -4,-10 -3,0 -8,5 -11,10 -3,6 -1,10 4,10 6,0 11,-4 11,-10 z m -880,-50 c 0,-5 -5,-10 -11,-10 -5,0 -7,5 -4,10 3,6 8,10 11,10 2,0 4,-4 4,-10 z m 1560,-87 c -11,-17 -11,-17 -6,0 3,10 7,28 7,40 2,22 2,22 6,0 2,-12 -1,-30 -7,-40 z m -660,27 c 0,-5 -4,-10 -10,-10 -5,0 -10,5 -10,10 0,6 5,10 10,10 6,0 10,-4 10,-10 z m 110,-10 c 0,-5 -4,-10 -10,-10 -5,0 -10,5 -10,10 0,6 5,10 10,10 6,0 10,-4 10,-10 z m -200,-24 c 0,-8 -4,-18 -10,-21 -5,-3 -10,3 -10,14 0,12 5,21 10,21 6,0 10,-6 10,-14 z m -30,-22 c 0,-8 -4,-12 -10,-9 -5,3 -10,10 -10,16 0,5 5,9 10,9 6,0 10,-7 10,-16 z m 215,-4 c 3,-5 1,-10 -4,-10 -6,0 -11,5 -11,10 0,6 2,10 4,10 3,0 8,-4 11,-10 z m -917,-36 c -10,-10 -28,6 -28,24 0,15 1,15 17,-1 9,-9 14,-19 11,-23 z m -1853,-4 c -3,-5 -12,-10 -18,-10 -7,0 -6,4 3,10 19,12 23,12 15,0 z m 3351,-17 c -3,-8 -6,-24 -6,-34 0,-11 -4,-17 -10,-14 -5,3 -10,22 -10,40 0,27 3,33 16,28 8,-3 13,-12 10,-20 z m -636,-13 c 0,-5 -4,-10 -10,-10 -5,0 -10,5 -10,10 0,6 5,10 10,10 6,0 10,-4 10,-10 z m -1963,-52 c -3,-7 -5,-2 -5,12 0,14 2,19 5,13 2,-7 2,-19 0,-25 z m 1973,-68 c 0,-5 -5,-10 -11,-10 -5,0 -7,5 -4,10 3,6 8,10 11,10 2,0 4,-4 4,-10 z m -2170,-25 c 0,-8 -4,-15 -10,-15 -5,0 -10,7 -10,15 0,8 5,15 10,15 6,0 10,-7 10,-15 z m 70,-41 c 0,-8 -4,-12 -10,-9 -5,3 -10,10 -10,16 0,5 5,9 10,9 6,0 10,-7 10,-16 z m 1875,-34 c 3,-6 -1,-7 -9,-4 -18,7 -21,14 -7,14 6,0 13,-4 16,-10 z m -1855,-65 c 0,-18 -5,-25 -20,-25 -20,0 -28,28 -13,43 15,16 33,6 33,-18 z m -50,-15 c 0,-5 -5,-10 -11,-10 -5,0 -7,5 -4,10 3,6 8,10 11,10 2,0 4,-4 4,-10 z M 777,3994 c -3,-3 -12,-4 -19,-1 -8,3 -5,6 6,6 11,1 17,-2 13,-5 z m -7,-354 c 0,-5 -5,-10 -11,-10 -5,0 -7,5 -4,10 3,6 8,10 11,10 2,0 4,-4 4,-10 z m 115,-88 c -3,-3 -11,0 -18,7 -9,10 -8,11 6,5 10,-3 15,-9 12,-12 z M 779,3297 c 0,-9 -2,-8 -6,1 -2,6 -10,9 -15,6 -7,-4 -8,-2 -4,5 9,13 26,5 25,-12 z"
         inkscape:connector-curvature="0" />
      <path
         id="path8"
         d="m 2776,4883 c -10,-10 -7,-25 3,-19 5,4 11,1 13,-6 3,-7 7,-8 10,-3 7,12 -17,37 -26,28 z"
         inkscape:connector-curvature="0" />
      <path
         id="path10"
         d="m 2540,4849 c 0,-5 5,-7 10,-4 6,3 10,8 10,11 0,2 -4,4 -10,4 -5,0 -10,-5 -10,-11 z"
         inkscape:connector-curvature="0" />
      <path
         id="path12"
         d="m 2722,4822 c -18,-15 -32,-33 -32,-39 0,-17 10,-16 32,4 13,11 18,12 18,3 0,-10 3,-10 15,0 16,13 20,46 7,54 -4,2 -22,-8 -40,-22 z"
         inkscape:connector-curvature="0" />
      <path
         id="path14"
         d="m 2613,4823 c -15,-6 -17,-33 -3,-33 5,0 6,-7 3,-17 -4,-10 -2,-14 4,-10 8,5 17,70 10,66 -1,0 -8,-3 -14,-6 z"
         inkscape:connector-curvature="0" />
      <path
         id="path16"
         d="m 2510,4739 c 0,-17 4,-28 10,-24 6,3 10,17 10,31 0,13 -4,24 -10,24 -5,0 -10,-14 -10,-31 z"
         inkscape:connector-curvature="0" />
      <path
         id="path18"
         d="m 2655,4709 c -4,-6 -5,-13 -2,-16 7,-7 27,6 27,18 0,12 -17,12 -25,-2 z"
         inkscape:connector-curvature="0" />
      <path
         id="path20"
         d="m 2515,4643 c -4,-13 -12,-23 -17,-23 -6,0 -5,-7 2,-15 18,-22 33,-4 27,31 -4,28 -5,28 -12,7 z"
         inkscape:connector-curvature="0" />
      <path
         id="path22"
         d="m 2460,4631 c -12,-23 -13,-31 -2,-31 4,0 12,11 19,25 13,29 -1,34 -17,6 z"
         inkscape:connector-curvature="0" />
      <path
         id="path24"
         d="m 2371,4573 c 0,-6 -4,-20 -7,-30 -5,-14 -4,-15 5,-7 7,7 11,20 8,30 -3,11 -5,14 -6,7 z"
         inkscape:connector-curvature="0" />
      <path
         id="path26"
         d="m 2606,4565 c -3,-8 -1,-15 4,-15 6,0 10,7 10,15 0,8 -2,15 -4,15 -2,0 -6,-7 -10,-15 z"
         inkscape:connector-curvature="0" />
      <path
         id="path28"
         d="m 2445,4531 c 3,-5 1,-12 -5,-16 -5,-3 -10,-12 -10,-18 0,-7 7,-3 15,7 18,23 19,36 4,36 -5,0 -8,-4 -4,-9 z"
         inkscape:connector-curvature="0" />
      <path
         id="path30"
         d="m 2527,4493 c -4,-3 -7,-13 -7,-22 1,-13 3,-13 11,2 11,19 8,33 -4,20 z"
         inkscape:connector-curvature="0" />
      <path
         id="path32"
         d="m 2482,4469 c -7,-11 -11,-23 -9,-25 7,-7 29,24 25,36 -2,6 -9,1 -16,-11 z"
         inkscape:connector-curvature="0" />
      <path
         id="path34"
         d="m 2185,4270 c -3,-5 1,-10 9,-10 9,0 16,5 16,10 0,6 -4,10 -9,10 -6,0 -13,-4 -16,-10 z"
         inkscape:connector-curvature="0" />
      <path
         id="path36"
         d="m 2240,4269 c 0,-5 5,-7 10,-4 6,3 10,8 10,11 0,2 -4,4 -10,4 -5,0 -10,-5 -10,-11 z"
         inkscape:connector-curvature="0" />
      <path
         id="path38"
         d="m 2150,4232 c 0,-7 -7,-12 -15,-12 -8,0 -15,-4 -15,-10 0,-13 37,-13 46,1 3,6 1,16 -5,22 -8,8 -11,8 -11,-1 z"
         inkscape:connector-curvature="0" />
      <path
         id="path40"
         d="m 2240,4212 c -18,-6 -30,-22 -30,-42 0,-10 9,-6 27,12 28,28 29,39 3,30 z"
         inkscape:connector-curvature="0" />
      <path
         id="path42"
         d="m 2072,4049 c 2,-6 8,-10 13,-10 5,0 11,4 13,10 2,6 -4,11 -13,11 -9,0 -15,-5 -13,-11 z"
         inkscape:connector-curvature="0" />
      <path
         id="path44"
         d="m 1985,3930 c -3,-5 -1,-10 4,-10 6,0 11,5 11,10 0,6 -2,10 -4,10 -3,0 -8,-4 -11,-10 z"
         inkscape:connector-curvature="0" />
      <path
         id="path46"
         d="m 2030,3849 c 0,-5 5,-7 10,-4 6,3 10,8 10,11 0,2 -4,4 -10,4 -5,0 -10,-5 -10,-11 z"
         inkscape:connector-curvature="0" />
      <path
         id="path48"
         d="m 1890,3500 c 0,-5 5,-10 10,-10 6,0 10,5 10,10 0,6 -4,10 -10,10 -5,0 -10,-4 -10,-10 z"
         inkscape:connector-curvature="0" />
      <path
         id="path50"
         d="m 2705,3269 c -12,-19 5,-23 22,-6 16,16 16,17 1,17 -9,0 -20,-5 -23,-11 z"
         inkscape:connector-curvature="0" />
      <path
         id="path52"
         d="m 2255,3120 c -3,-5 -1,-10 4,-10 6,0 11,5 11,10 0,6 -2,10 -4,10 -3,0 -8,-4 -11,-10 z"
         inkscape:connector-curvature="0" />
      <path
         id="path54"
         d="m 2195,3030 c 3,-5 8,-10 11,-10 2,0 4,5 4,10 0,6 -5,10 -11,10 -5,0 -7,-4 -4,-10 z"
         inkscape:connector-curvature="0" />
      <path
         id="path56"
         d="m 2345,2930 c -7,-12 2,-30 16,-30 12,0 12,27 0,35 -5,3 -12,1 -16,-5 z"
         inkscape:connector-curvature="0" />
      <path
         id="path58"
         d="m 2861,1984 c 0,-11 3,-14 6,-6 3,7 2,16 -1,19 -3,4 -6,-2 -5,-13 z"
         inkscape:connector-curvature="0" />
      <path
         id="path60"
         d="m 2860,1951 c 0,-5 5,-13 10,-16 6,-3 10,-2 10,4 0,5 -4,13 -10,16 -5,3 -10,2 -10,-4 z"
         inkscape:connector-curvature="0" />
      <path
         id="path62"
         d="m 2756,1793 c -6,-14 -5,-15 5,-6 7,7 10,15 7,18 -3,3 -9,-2 -12,-12 z"
         inkscape:connector-curvature="0" />
      <path
         id="path64"
         d="m 4821,6114 c 0,-11 3,-14 6,-6 3,7 2,16 -1,19 -3,4 -6,-2 -5,-13 z"
         inkscape:connector-curvature="0" />
      <path
         id="path66"
         d="m 2930,5641 c 0,-15 16,-22 34,-15 25,9 19,24 -9,24 -14,0 -25,-4 -25,-9 z"
         inkscape:connector-curvature="0" />
      <path
         id="path68"
         d="m 3161,5503 c -23,-25 -39,-48 -36,-51 6,-7 50,34 77,71 32,44 3,31 -41,-20 z"
         inkscape:connector-curvature="0" />
      <path
         id="path70"
         d="m 3828,5520 c -3,-16 -1,-30 4,-30 4,0 8,14 8,30 0,17 -2,30 -4,30 -2,0 -6,-13 -8,-30 z"
         inkscape:connector-curvature="0" />
      <path
         id="path72"
         d="m 4245,5540 c -3,-5 -2,-10 4,-10 5,0 13,5 16,10 3,6 2,10 -4,10 -5,0 -13,-4 -16,-10 z"
         inkscape:connector-curvature="0" />
      <path
         id="path74"
         d="m 3225,5470 c -3,-5 3,-10 15,-10 12,0 18,5 15,10 -3,6 -10,10 -15,10 -5,0 -12,-4 -15,-10 z"
         inkscape:connector-curvature="0" />
      <path
         id="path76"
         d="m 4955,5070 c -3,-5 -2,-10 4,-10 5,0 13,5 16,10 3,6 2,10 -4,10 -5,0 -13,-4 -16,-10 z"
         inkscape:connector-curvature="0" />
      <path
         id="path78"
         d="m 4785,4800 c 3,-5 8,-10 11,-10 2,0 4,5 4,10 0,6 -5,10 -11,10 -5,0 -7,-4 -4,-10 z"
         inkscape:connector-curvature="0" />
      <path
         id="path80"
         d="m 3700,4559 c -10,-18 -9,-20 7,-17 10,2 19,11 21,21 5,24 -15,21 -28,-4 z"
         inkscape:connector-curvature="0" />
      <path
         id="path84"
         d="m 4768,2408 c 8,-9 11,-22 8,-27 -4,-5 -2,-12 4,-16 18,-11 11,32 -7,46 -16,13 -17,12 -5,-3 z"
         inkscape:connector-curvature="0" />
    </g>
  </g>
</svg>
